<mxfile host="app.diagrams.net" modified="2023-05-16T07:39:39.692Z" agent="Mozilla/5.0 (Windows NT 10.0; Win64; x64) AppleWebKit/537.36 (KHTML, like Gecko) Chrome/113.0.0.0 Safari/537.36" version="21.3.2" etag="jmGsAWJM_OOuLZYeksLk" type="github">
  <diagram name="Page-1" id="Cn5NNgmPJapk5n6tBaGA">
    <mxGraphModel>
      <root>
        <mxCell id="0" />
        <mxCell id="1" parent="0" />
      </root>
    </mxGraphModel>
  </diagram>
</mxfile>
